<svg width="120" height="84" viewBox="0 0 120 84" fill="none" xmlns="http://www.w3.org/2000/svg">
    <path d="M103.39 41.8923H1.87977C1.3814 41.8917 0.903615 41.6935 0.551215 41.3411C0.198814 40.9887 0.000576483 40.5109 0 40.0125V14.8324C0.000576483 14.334 0.198814 13.8562 0.551215 13.5038C0.903615 13.1514 1.3814 12.9532 1.87977 12.9526H103.39C103.888 12.9532 104.366 13.1514 104.718 13.5038C105.071 13.8562 105.269 14.334 105.27 14.8324V40.0129C105.269 40.5112 105.071 40.9889 104.718 41.3412C104.366 41.6935 103.888 41.8917 103.39 41.8923ZM1.87977 13.7045C1.58071 13.7048 1.29399 13.8237 1.08252 14.0351C0.871054 14.2466 0.752129 14.5333 0.751841 14.8324V40.0129C0.752129 40.312 0.871054 40.5987 1.08252 40.8101C1.29399 41.0216 1.58071 41.1405 1.87977 41.1408H103.39C103.689 41.1405 103.976 41.0216 104.187 40.8101C104.399 40.5987 104.518 40.312 104.518 40.0129V14.8324C104.518 14.5333 104.399 14.2466 104.187 14.0351C103.976 13.8237 103.689 13.7048 103.39 13.7045H1.87977Z" fill="#E4E9F2"/>
    <path d="M15.0384 35.3175C19.3987 35.3175 22.9335 31.7827 22.9335 27.4223C22.9335 23.0619 19.3987 19.5271 15.0384 19.5271C10.678 19.5271 7.14319 23.0619 7.14319 27.4223C7.14319 31.7827 10.678 35.3175 15.0384 35.3175Z" fill="#E4E9F2"/>
    <path d="M33.2723 22.1591C32.9271 22.1649 32.598 22.306 32.3559 22.5521C32.1138 22.7983 31.9781 23.1297 31.9781 23.4749C31.9781 23.8202 32.1138 24.1516 32.3559 24.3977C32.598 24.6438 32.9271 24.785 33.2723 24.7907H95.3061C95.6551 24.7974 95.9924 24.6653 96.2439 24.4233C96.4955 24.1813 96.6405 23.8493 96.6473 23.5004C96.654 23.1514 96.5218 22.8141 96.2798 22.5626C96.0379 22.3111 95.7059 22.166 95.3569 22.1592L95.3493 22.1591C95.335 22.1589 95.3206 22.1589 95.3062 22.1591H33.2723Z" fill="#E4E9F2"/>
    <path d="M33.2723 30.0544C32.9271 30.0601 32.598 30.2013 32.3559 30.4474C32.1138 30.6935 31.9781 31.0249 31.9781 31.3702C31.9781 31.7154 32.1138 32.0468 32.3559 32.2929C32.598 32.5391 32.9271 32.6802 33.2723 32.686H95.3061C95.6545 32.6908 95.9906 32.5573 96.2407 32.3146C96.4908 32.072 96.6345 31.7401 96.6402 31.3917C96.6459 31.0433 96.5132 30.7069 96.2712 30.4562C96.0293 30.2055 95.6977 30.061 95.3493 30.0544C95.335 30.0541 95.3205 30.0541 95.3061 30.0544H33.2723Z" fill="#E4E9F2"/>
    <path d="M103.39 84H1.87977C1.3814 83.9994 0.903615 83.8012 0.551215 83.4488C0.198814 83.0964 0.000576483 82.6186 0 82.1202V56.9401C0.000576483 56.4417 0.198814 55.9639 0.551215 55.6115C0.903615 55.2591 1.3814 55.0609 1.87977 55.0603H103.39C103.888 55.0609 104.366 55.2591 104.718 55.6115C105.071 55.9639 105.269 56.4417 105.27 56.9401V82.1206C105.269 82.6189 105.071 83.0966 104.718 83.4489C104.366 83.8012 103.888 83.9994 103.39 84ZM1.87977 55.8121C1.58071 55.8124 1.29399 55.9313 1.08252 56.1428C0.871054 56.3543 0.752129 56.641 0.751841 56.9401V82.1206C0.752129 82.4196 0.871054 82.7063 1.08252 82.9178C1.29399 83.1293 1.58071 83.2482 1.87977 83.2485H103.39C103.689 83.2482 103.976 83.1293 104.187 82.9178C104.399 82.7063 104.518 82.4196 104.518 82.1206V56.9401C104.518 56.641 104.399 56.3543 104.187 56.1428C103.976 55.9313 103.689 55.8124 103.39 55.8121H1.87977Z" fill="#E4E9F2"/>
    <path d="M15.0384 77.4254C19.3987 77.4254 22.9335 73.8906 22.9335 69.5302C22.9335 65.1698 19.3987 61.635 15.0384 61.635C10.678 61.635 7.14319 65.1698 7.14319 69.5302C7.14319 73.8906 10.678 77.4254 15.0384 77.4254Z" fill="#E4E9F2"/>
    <path d="M33.2723 64.267C32.9271 64.2728 32.598 64.4139 32.3559 64.6601C32.1138 64.9062 31.9781 65.2376 31.9781 65.5828C31.9781 65.9281 32.1138 66.2595 32.3559 66.5056C32.598 66.7517 32.9271 66.8929 33.2723 66.8986H95.3061C95.6545 66.9035 95.9906 66.7699 96.2407 66.5273C96.4908 66.2847 96.6345 65.9528 96.6402 65.6044C96.6459 65.256 96.5132 64.9195 96.2712 64.6688C96.0293 64.4181 95.6977 64.2736 95.3493 64.267C95.335 64.2668 95.3205 64.2668 95.3061 64.267H33.2723Z" fill="#E4E9F2"/>
    <path d="M33.2723 72.162C32.9271 72.1678 32.598 72.3089 32.3559 72.5551C32.1138 72.8012 31.9781 73.1326 31.9781 73.4778C31.9781 73.8231 32.1138 74.1545 32.3559 74.4006C32.598 74.6468 32.9271 74.7879 33.2723 74.7936H95.3061C95.6545 74.7985 95.9906 74.6649 96.2407 74.4223C96.4908 74.1797 96.6345 73.8478 96.6402 73.4994C96.6459 73.151 96.5132 72.8145 96.2712 72.5638C96.0293 72.3131 95.6977 72.1686 95.3493 72.162C95.335 72.1618 95.3205 72.1618 95.3061 72.162H33.2723Z" fill="#E4E9F2"/>
    <path d="M99.3825 32.8249C107.402 32.8249 113.904 26.3235 113.904 18.3037C113.904 10.2838 107.402 3.78247 99.3825 3.78247C91.3627 3.78247 84.8613 10.2838 84.8613 18.3037C84.8613 26.3235 91.3627 32.8249 99.3825 32.8249Z" fill="white"/>
    <path d="M94.3392 24.8366C94.3143 24.8366 94.2894 24.8365 94.2644 24.8359H86.4593C85.4689 24.8203 84.5244 24.4159 83.8294 23.7102C83.1345 23.0044 82.7448 22.0538 82.7444 21.0633C82.744 20.0728 83.1329 19.1218 83.8273 18.4155C84.5217 17.7092 85.4659 17.3041 86.4563 17.2876H94.268C94.3063 17.2869 94.3479 17.2869 94.3892 17.2876C95.3855 17.3014 96.336 17.7085 97.0334 18.4202C97.7307 19.132 98.1184 20.0906 98.1118 21.087C98.1052 22.0834 97.7049 23.0367 96.9982 23.7392C96.2915 24.4416 95.3357 24.8361 94.3392 24.8366Z" fill="#FFC34A"/>
    <path d="M118.426 61.1379C117.902 61.381 117.303 61.406 116.761 61.2074C116.218 61.0088 115.777 60.6028 115.534 60.0788L103.005 33.0751C102.762 32.5511 102.737 31.952 102.936 31.4096C103.134 30.8672 103.54 30.4259 104.064 30.1828C104.588 29.9397 105.188 29.9146 105.73 30.1132C106.272 30.3118 106.714 30.7177 106.957 31.2416L119.485 58.2453C119.729 58.7693 119.754 59.3685 119.555 59.911C119.356 60.4534 118.95 60.8948 118.426 61.1379Z" fill="#C5CEE0"/>
    <path d="M105.554 32.0815C105.169 32.0815 104.8 31.9285 104.527 31.6562C104.255 31.3838 104.102 31.0145 104.102 30.6294V12.132H85.9505C85.5654 12.132 85.1961 11.979 84.9237 11.7067C84.6514 11.4344 84.4984 11.065 84.4984 10.6799C84.4984 10.2948 84.6514 9.92542 84.9237 9.6531C85.1961 9.38077 85.5654 9.22778 85.9505 9.22778H105.554C105.939 9.22778 106.309 9.38077 106.581 9.6531C106.853 9.92542 107.006 10.2948 107.006 10.6799V30.6294C107.006 31.0145 106.853 31.3838 106.581 31.6562C106.309 31.9285 105.939 32.0815 105.554 32.0815Z" fill="#FFC34A"/>
    <path d="M105.898 34.1343C102.772 35.5848 99.2855 36.0756 95.8803 35.5448C92.475 35.0139 89.3036 33.4852 86.7671 31.1519C84.2306 28.8186 82.443 25.7856 81.6303 22.4364C80.8176 19.0871 81.0163 15.5721 82.2013 12.3358C83.3864 9.09952 85.5044 6.28729 88.2877 4.25476C91.071 2.22223 94.3945 1.06069 97.8379 0.917009C101.281 0.773331 104.69 1.65397 107.633 3.44757C110.576 5.24118 112.921 7.86719 114.371 10.9935C116.311 15.1865 116.508 19.9777 114.92 24.316C113.331 28.6542 110.087 32.1852 105.898 34.1343ZM93.064 6.47204C90.7193 7.55991 88.7498 9.31864 87.4046 11.5258C86.0593 13.733 85.3989 16.2896 85.5066 18.8721C85.6144 21.4547 86.4855 23.9473 88.0099 26.0348C89.5343 28.1223 91.6435 29.7108 94.0708 30.5996C96.498 31.4883 99.1342 31.6373 101.646 31.0278C104.158 30.4183 106.433 29.0776 108.183 27.1752C109.933 25.2729 111.079 22.8943 111.477 20.3404C111.876 17.7864 111.507 15.1717 110.42 12.827C108.958 9.68549 106.31 7.25215 103.056 6.06079C99.8022 4.86942 96.2088 5.01732 93.064 6.47204Z" fill="#C5CEE0"/>
</svg>
