<svg width="25" height="24" viewBox="0 0 25 24" fill="none" xmlns="http://www.w3.org/2000/svg">
<path d="M18.9864 5.93361L19.1329 6.08006H19.34H19.74C20.2022 6.08006 20.7625 6.08921 21.2118 6.33763C21.4228 6.4543 21.6112 6.62604 21.7513 6.89269C21.894 7.16413 22 7.55971 22 8.14006C22 8.92383 21.8496 9.38062 21.6631 9.65157C21.4865 9.90824 21.2397 10.0528 20.9096 10.1323C20.6777 10.1815 20.4274 10.2001 20.14 10.2001H4.86C4.56436 10.2001 4.30543 10.1891 4.07732 10.134L4.07733 10.134L4.07013 10.1323C3.82695 10.0774 3.63495 9.98448 3.48069 9.82379L3.48077 9.82372L3.47355 9.8165C3.19006 9.53301 3 9.05351 3 8.14006C3 7.55969 3.10601 7.16419 3.24876 6.89284C3.38897 6.6263 3.57748 6.45457 3.78904 6.33785C4.23964 6.08924 4.80249 6.08006 5.27 6.08006H5.67H5.87754L6.02408 5.93309L9.38966 2.55751C9.47814 2.47467 9.60223 2.48277 9.67337 2.5506C9.75654 2.64032 9.7468 2.76615 9.67645 2.83651L7.28645 5.22651L6.43289 6.08006H7.64H17.36H18.5671L17.7136 5.22651L15.3276 2.84059C15.2446 2.7521 15.2527 2.62788 15.3205 2.55669C15.4103 2.47352 15.5361 2.48326 15.6064 2.55361L18.9864 5.93361Z" fill="#101426" stroke="#101426"/>
<path d="M4.87337 13.0794L4.87332 13.0791C4.82364 12.7761 5.05572 12.5 5.36991 12.5H19.5499C19.8649 12.5 20.0994 12.7828 20.039 13.095L20.039 13.0952L19.029 18.3252L19.0287 18.3264C18.8494 19.268 18.6279 20.0327 18.1185 20.5772C17.6295 21.0999 16.7931 21.5 15.1899 21.5H9.57991C8.02136 21.5 7.15049 21.0415 6.62787 20.4606C6.08709 19.8595 5.84891 19.052 5.71341 18.2197L5.71336 18.2194L4.87337 13.0794ZM10.4199 19.65C11.0807 19.65 11.6099 19.1114 11.6099 18.45V15.15C11.6099 14.5032 11.0853 13.95 10.4199 13.95C9.74914 13.95 9.21991 14.4985 9.21991 15.15V18.45C9.21991 19.1161 9.75377 19.65 10.4199 19.65ZM14.6899 19.65C15.3561 19.65 15.8899 19.1161 15.8899 18.45V15.15C15.8899 14.4985 15.3607 13.95 14.6899 13.95C14.0338 13.95 13.4899 14.4939 13.4899 15.15V18.45C13.4899 19.1208 14.0384 19.65 14.6899 19.65Z" fill="#101426" stroke="#101426"/>
</svg>
